<?xml version="1.0" encoding="UTF-8"?>
<svg xmlns="http://www.w3.org/2000/svg" xmlns:xlink="http://www.w3.org/1999/xlink" viewBox="0 0 26 26" width="26px" height="26px">
<g id="surface9341277">
<path style=" stroke:none;fill-rule:nonzero;fill:rgb(12.156863%,11.764706%,11.764706%);fill-opacity:1;" d="M 2.101562 23 C 2.101562 23 2.101562 21.5 2.101562 21.300781 C 2.101562 19.101562 5.398438 17.101562 9 16.398438 C 9 16.398438 10.101562 15.800781 9.800781 14.699219 C 8.699219 13.300781 8.398438 11.800781 8.398438 11.800781 C 8.199219 11.699219 7.898438 11.5 7.699219 11.300781 C 7.398438 10.898438 7 9.699219 7.101562 8.800781 C 7.199219 8 7.398438 8.300781 7.5 8.101562 C 6.699219 6.300781 7.101562 4 8 2.300781 C 9.898438 -1 13.898438 0 14.5 1.199219 C 18.300781 0.5 18.199219 6.5 17.601562 8 C 17.601562 8 17.898438 8.101562 17.898438 9.5 C 17.800781 11 16.601562 11.898438 16.601562 11.898438 C 16.601562 12.300781 16.101562 13.5 15.300781 14.601562 C 14.601562 16 16 16.300781 16 16.300781 C 19.601562 17 22.898438 19 22.898438 21.199219 C 22.898438 21.398438 22.898438 22.898438 22.898438 22.898438 C 22.898438 24.300781 17.5 25.800781 12.5 25.800781 C 7.601562 25.800781 2.101562 25.300781 2.101562 23 Z M 2.101562 23 "/>
</g>
</svg>
