<?xml version="1.0" encoding="utf-8"?>
<!-- Generator: Adobe Illustrator 24.0.2, SVG Export Plug-In . SVG Version: 6.00 Build 0)  -->
<svg version="1.1" id="Capa_1" xmlns="http://www.w3.org/2000/svg" xmlns:xlink="http://www.w3.org/1999/xlink" x="0px" y="0px"
	 viewBox="0 0 270 273" style="enable-background:new 0 0 270 273;" xml:space="preserve">
<style type="text/css">
	.st0{fill:url(#SVGID_1_);}
	.st1{fill:url(#SVGID_2_);}
	.st2{fill:#FFFFFF;}
</style>
<title>logo4</title>
<linearGradient id="SVGID_1_" gradientUnits="userSpaceOnUse" x1="134.4" y1="528.9" x2="134.4" y2="272.7" gradientTransform="matrix(1 0 0 1 0 -266)">
	<stop  offset="0" style="stop-color:#E5A963"/>
	<stop  offset="0.51" style="stop-color:#DC8A73"/>
	<stop  offset="1" style="stop-color:#CE6978"/>
</linearGradient>
<path class="st0" d="M134.4,6.7L134.4,6.7c70.7,0,128.1,57.3,128.1,128.1l0,0c0,70.7-57.3,128.1-128.1,128.1l0,0
	c-70.7,0-128.1-57.3-128.1-128.1l0,0C6.3,64,63.6,6.7,134.4,6.7z"/>
<linearGradient id="SVGID_2_" gradientUnits="userSpaceOnUse" x1="-927.4799" y1="490.454" x2="-927.4799" y2="234.2857" gradientTransform="matrix(-0.6447 -0.7645 0.7645 -0.6447 -740.578 -340.7385)">
	<stop  offset="0" style="stop-color:#77C15B"/>
	<stop  offset="1" style="stop-color:#40A8E8"/>
	<stop  offset="1" style="stop-color:#2E8DD9"/>
	<stop  offset="1" style="stop-color:#0E5CBC"/>
</linearGradient>
<path class="st1" d="M51.8,36.8L51.8,36.8C105.9-8.8,186.7-1.9,232.3,52.1l0,0C277.9,106.2,271,187,217,232.6l0,0
	c-54.1,45.6-134.9,38.7-180.5-15.3l0,0C-9.1,163.2-2.3,82.4,51.8,36.8z"/>
<g>
	<path class="st2" d="M122.1,140.4c17.9,16,37.6,29.8,58.7,41.3c-0.7-5.9-6.2-23.9-44.6-53.6c-44.5-34-60-65.5-63.1-72.4
		C65.8,60.9,57,68.3,52.2,76.3c-1.4,2.3-2.9,4.5-4.6,6.7C53.6,86.8,83.4,106.3,122.1,140.4z"/>
	<path class="st2" d="M75.1,54.3c1.5,3.6,8.4,18.3,25.4,37.7c40,11.8,64.9-5.4,69.2-8.7c-3-7.4-6.5-13-12.5-16.4
		c-6.6-3.7-10.6,0-15.8,4.6c-5.6,5-12,10.8-22.9,7.5c-17.3-5.1-24.1-16.2-28.7-23.5c-2.1-3.4-3.4-5.3-4.7-6.1
		c-0.9-0.5-2.1-0.4-2.9,0.3C80.3,50.8,77.9,52.4,75.1,54.3z"/>
	<path class="st2" d="M172.1,159c1.5,1.2,18.6,14,47,15.5c-7.6-8.2-17.8-19.1-26-31.7c-2.5-1.3-23.8-12-43-6.6
		C158.1,143.1,165.5,150.7,172.1,159z"/>
	<path class="st2" d="M86,121.8l-22.9-13.5c-2-1-4.3-0.2-5.3,1.8c-0.9,1.8-0.3,3.9,1.3,5L82,128.6c1.8,1.2,4.3,0.7,5.5-1.1
		s0.7-4.3-1.1-5.5C86.2,122,86.1,121.9,86,121.8z"/>
	<path class="st2" d="M174.8,99.1c-1.5-4.9-2.8-9.5-4.3-13.5c-5.8,4.2-29.8,19.3-67.1,9.7c10.4,11.3,21.9,21.6,34.1,30.9
		c3.7,2.9,7.1,5.6,10.3,8.3c16.8-5.5,35,1.1,42.7,4.5c-2.9-4.7-5.4-9.6-7.4-14.8C179.5,115,177,106.5,174.8,99.1z"/>
	<path class="st2" d="M225.6,199.2c-11.6,0.6-32.1-6.8-55.7-20.7c-17.6-10.5-34.2-22.6-49.5-36.3c-38.9-34.4-68.9-53.8-74.3-57.3
		c-1.9,2.4-3.9,4.6-5.8,6.6c-6,6.7-10,11.1-7.7,16.7c3.5,8.6,135.6,84.1,166.1,92.3C214,204.6,221.9,201.9,225.6,199.2z M80.8,130.7
		l-22.9-13.5c-3-1.8-4-5.7-2.2-8.7s5.7-4,8.7-2.2l0,0l22.8,13.5c3,1.8,4,5.7,2.2,8.7S83.8,132.5,80.8,130.7L80.8,130.7L80.8,130.7z"
		/>
	<path class="st2" d="M229.2,186.4c-1.1-2-4-5.3-7.8-9.4c-22-0.7-37.5-7.9-45.3-12.5H176c6.4,9.8,7.3,16,7.3,18.5
		c20.1,10.5,36.8,15.4,45.1,13.4C230.6,193.5,230.9,189.6,229.2,186.4z"/>
</g>
</svg>
