<?xml version="1.0" encoding="UTF-8"?>
<svg xmlns="http://www.w3.org/2000/svg" xmlns:xlink="http://www.w3.org/1999/xlink" viewBox="0 0 24 24" width="24px" height="24px">
<g id="surface4414821">
<path style="fill-rule:evenodd;fill:rgb(100%,100%,100%);fill-opacity:1;stroke-width:12;stroke-linecap:butt;stroke-linejoin:round;stroke:rgb(96.078432%,96.078432%,96.078432%);stroke-opacity:1;stroke-miterlimit:10;" d="M 93.155888 14.321357 L 93.155888 78.844112 L 157.678642 78.844112 L 157.678642 93.155888 L 93.155888 93.155888 L 93.155888 157.678642 L 78.844112 157.678642 L 78.844112 93.155888 L 14.321357 93.155888 L 14.321357 78.844112 L 78.844112 78.844112 L 78.844112 14.321357 Z M 93.155888 14.321357 " transform="matrix(0.130465,0,0,0.130465,0.78,0.78)"/>
<path style=" stroke:none;fill-rule:evenodd;fill:rgb(97.254902%,97.254902%,97.254902%);fill-opacity:1;" d="M 11.066406 2.648438 L 11.066406 11.066406 L 2.648438 11.066406 L 2.648438 12.933594 L 11.066406 12.933594 L 11.066406 21.351562 L 12.933594 21.351562 L 12.933594 12.933594 L 21.351562 12.933594 L 21.351562 11.066406 L 12.933594 11.066406 L 12.933594 2.648438 Z M 11.066406 2.648438 "/>
</g>
</svg>
